<?xml version="1.0" standalone="no"?>
<!DOCTYPE svg PUBLIC "-//W3C//DTD SVG 20010904//EN"
 "http://www.w3.org/TR/2001/REC-SVG-20010904/DTD/svg10.dtd">
<svg version="1.0" xmlns="http://www.w3.org/2000/svg"
 width="2173.000000pt" height="2173.000000pt" viewBox="0 0 2173.000000 2173.000000"
 preserveAspectRatio="xMidYMid meet">
<metadata>
Created by potrace 1.14, written by Peter Selinger 2001-2017
</metadata>
<g transform="translate(0.000000,2173.000000) scale(0.100000,-0.100000)"
fill="#000000" stroke="none">
<path d="M10449 21725 c-2 -2 -69 -6 -149 -10 -80 -3 -161 -8 -180 -10 -19 -1
-78 -6 -130 -10 -52 -3 -104 -8 -115 -10 -11 -2 -56 -7 -100 -10 -44 -3 -91
-7 -105 -9 -14 -3 -52 -7 -85 -11 -33 -3 -75 -8 -92 -11 -18 -2 -48 -6 -65 -8
-88 -12 -259 -38 -308 -46 -30 -5 -73 -12 -95 -16 -22 -3 -71 -12 -110 -19
-38 -8 -86 -17 -105 -20 -19 -3 -89 -17 -155 -32 -66 -14 -138 -29 -160 -34
-32 -6 -180 -42 -307 -75 -10 -2 -27 -6 -37 -8 -183 -41 -705 -207 -1021 -324
-529 -196 -1130 -476 -1570 -732 -36 -21 -81 -47 -101 -58 -350 -195 -965
-617 -1314 -901 -44 -36 -102 -83 -130 -105 -27 -23 -52 -43 -55 -46 -3 -3
-52 -45 -110 -94 -58 -49 -109 -94 -115 -100 -5 -6 -30 -29 -55 -50 -250 -218
-693 -664 -913 -919 -10 -12 -28 -33 -40 -47 -12 -14 -47 -55 -77 -90 -30 -36
-57 -67 -60 -70 -22 -20 -240 -296 -343 -435 -70 -93 -130 -174 -135 -180
-133 -172 -493 -730 -615 -955 -16 -30 -33 -59 -37 -65 -29 -40 -157 -282
-274 -520 -165 -333 -284 -609 -454 -1055 -41 -109 -172 -504 -208 -630 -84
-296 -123 -444 -164 -620 -47 -206 -112 -520 -124 -605 -4 -22 -10 -62 -16
-90 -5 -27 -11 -66 -14 -85 -6 -38 -12 -83 -26 -175 -5 -33 -12 -80 -15 -105
-3 -25 -7 -61 -10 -80 -2 -19 -7 -60 -10 -90 -4 -30 -8 -64 -10 -75 -2 -11 -6
-56 -10 -100 -3 -44 -8 -94 -10 -111 -3 -17 -7 -73 -10 -125 -4 -52 -8 -105
-11 -119 -11 -65 -18 -384 -18 -775 0 -427 3 -509 30 -830 3 -44 7 -98 9 -120
6 -90 16 -191 20 -205 2 -8 7 -46 10 -85 3 -38 10 -95 15 -125 5 -30 12 -80
15 -110 3 -30 12 -93 20 -140 8 -47 16 -101 19 -120 5 -35 42 -243 51 -290 79
-409 164 -761 256 -1055 112 -364 310 -916 394 -1100 8 -16 38 -86 68 -155 99
-229 120 -273 252 -535 131 -259 167 -327 212 -397 12 -21 23 -40 23 -42 0 -2
34 -64 77 -137 295 -515 800 -1224 1152 -1618 32 -36 75 -86 96 -111 79 -96
269 -295 502 -527 227 -226 313 -307 488 -458 38 -33 79 -69 90 -80 12 -11 46
-40 76 -65 29 -25 56 -47 59 -50 3 -3 61 -50 130 -104 69 -54 134 -105 145
-114 126 -104 511 -380 710 -509 914 -592 1817 -1012 2829 -1318 157 -48 604
-166 676 -178 14 -3 43 -10 65 -15 108 -29 571 -115 740 -138 22 -3 49 -7 60
-9 11 -1 45 -6 75 -10 30 -4 66 -9 80 -11 24 -4 148 -19 235 -29 22 -2 72 -7
110 -10 39 -4 81 -8 95 -10 14 -2 77 -7 140 -11 63 -3 126 -8 140 -10 188 -23
1124 -23 1388 1 20 2 84 6 142 10 58 3 116 8 130 10 14 2 63 7 110 10 47 4 92
9 100 10 8 2 44 6 80 10 36 3 76 8 90 10 14 2 66 9 115 15 50 6 117 15 150 21
33 6 74 12 90 14 52 7 109 15 135 20 14 3 36 8 50 11 14 3 41 7 60 9 19 3 46
8 60 11 40 9 63 14 100 20 77 12 365 76 535 119 99 25 187 47 196 49 169 41
795 239 904 286 11 5 76 30 145 56 123 46 391 156 480 196 333 150 655 311
904 452 54 31 100 56 101 56 14 0 410 244 620 382 178 117 639 448 665 478 3
3 41 34 85 68 44 34 89 70 100 80 11 10 40 34 65 53 25 18 47 36 50 39 3 3 41
36 85 74 44 39 85 75 90 80 6 6 28 26 50 45 144 122 606 573 760 742 128 140
294 330 418 479 79 94 255 323 366 475 72 99 134 185 138 190 64 82 361 550
486 764 276 475 597 1160 757 1616 156 445 234 695 313 1010 40 158 122 526
133 600 1 11 10 54 18 95 8 41 17 93 20 115 4 23 8 50 10 60 2 11 7 40 10 65
3 25 8 54 10 66 2 12 7 45 11 75 3 30 8 65 10 79 3 14 7 48 10 75 3 28 8 61
10 75 4 25 10 88 20 215 3 39 8 95 10 125 26 293 26 983 0 1118 -1 9 -6 46
-10 82 -7 61 -28 130 -39 130 -18 0 -44 -88 -61 -205 -3 -22 -8 -53 -10 -70
-3 -16 -14 -104 -25 -195 -11 -91 -22 -176 -25 -190 -2 -14 -7 -49 -10 -79 -4
-30 -8 -62 -10 -72 -2 -9 -7 -39 -10 -66 -9 -61 -44 -288 -51 -328 -3 -16 -7
-41 -9 -55 -4 -30 -9 -55 -41 -235 -14 -77 -34 -180 -45 -230 -12 -49 -22 -97
-24 -105 -6 -27 -56 -244 -61 -262 -2 -10 -6 -26 -9 -35 -8 -32 -27 -108 -31
-128 -5 -24 -75 -272 -116 -410 -140 -471 -334 -988 -533 -1420 -12 -27 -37
-81 -54 -118 -101 -219 -256 -516 -409 -782 -151 -263 -449 -720 -606 -931
-17 -23 -40 -55 -51 -70 -148 -206 -511 -646 -730 -884 -157 -170 -577 -583
-731 -717 -11 -10 -49 -43 -84 -73 -34 -30 -68 -59 -74 -65 -6 -5 -38 -32 -71
-60 -33 -27 -62 -52 -65 -55 -15 -16 -129 -107 -225 -180 -60 -47 -112 -87
-115 -90 -15 -15 -185 -139 -405 -293 -251 -176 -651 -419 -985 -599 -141 -76
-564 -288 -574 -288 -2 0 -37 -15 -78 -34 -267 -125 -703 -293 -1048 -405
-218 -70 -706 -206 -810 -225 -14 -2 -55 -11 -91 -20 -37 -8 -78 -17 -90 -20
-106 -22 -188 -38 -209 -42 -14 -2 -45 -9 -70 -14 -40 -8 -74 -14 -195 -34
-83 -14 -225 -36 -265 -41 -45 -5 -103 -13 -150 -20 -14 -2 -50 -7 -80 -10
-58 -6 -120 -13 -185 -20 -22 -3 -69 -7 -105 -10 -36 -3 -96 -8 -135 -11 -270
-21 -440 -27 -800 -28 -304 0 -584 7 -706 19 -19 2 -76 6 -125 10 -49 3 -105
8 -124 10 -19 2 -64 7 -100 10 -36 3 -81 8 -100 10 -19 3 -54 7 -77 10 -24 3
-60 7 -80 10 -21 2 -58 7 -83 10 -25 3 -56 7 -70 10 -14 2 -45 7 -70 10 -95
13 -369 60 -460 80 -36 7 -81 16 -101 19 -53 8 -404 90 -555 130 -519 137
-1165 367 -1588 566 -48 22 -89 40 -92 40 -13 0 -559 277 -649 330 -16 10 -52
30 -80 45 -83 45 -442 261 -570 343 -430 275 -1005 722 -1386 1078 -109 102
-474 467 -569 569 -328 353 -669 779 -920 1152 -287 424 -487 753 -636 1047
-19 39 -60 118 -91 176 -30 58 -74 148 -98 200 -23 52 -57 127 -75 165 -17 39
-40 88 -50 110 -97 212 -277 684 -373 980 -81 249 -192 646 -222 795 -2 8 -15
69 -29 135 -15 66 -31 140 -36 165 -12 59 -57 303 -65 360 -4 25 -9 52 -10 60
-7 42 -16 99 -20 130 -2 19 -7 53 -10 75 -13 82 -21 138 -30 225 -4 30 -8 66
-10 80 -2 14 -6 57 -10 95 -3 39 -8 86 -10 105 -2 19 -7 78 -10 130 -4 52 -9
98 -11 101 -16 26 -24 1018 -10 1224 5 61 10 133 11 160 8 127 16 224 20 270
3 28 8 70 10 95 7 68 16 152 20 180 2 14 6 50 10 80 4 30 8 66 10 80 2 14 7
45 10 70 9 68 34 228 40 260 2 10 7 40 11 67 5 26 9 50 9 53 1 3 5 23 9 45 17
92 48 246 66 325 10 47 22 100 25 119 3 19 8 37 10 41 2 3 6 17 8 31 7 36 78
312 82 319 2 4 7 20 10 37 6 38 98 341 158 523 73 221 212 591 272 725 7 17
35 80 60 140 269 628 689 1358 1124 1950 88 120 337 443 351 455 3 3 41 48 85
100 43 52 81 97 84 100 3 3 35 39 71 80 190 219 552 588 801 815 291 265 583
502 939 761 206 151 622 420 860 557 223 128 859 457 884 457 2 0 37 15 78 34
40 19 118 53 173 76 55 22 109 45 120 50 104 48 466 181 705 260 189 63 567
174 665 196 6 1 69 16 140 33 120 29 431 95 500 107 17 2 55 9 85 15 72 13 86
16 145 25 28 4 52 8 55 9 3 0 32 5 65 9 32 4 67 9 76 11 9 2 40 6 70 10 30 3
61 8 69 10 8 2 42 7 75 10 33 3 78 8 100 11 68 8 107 13 185 20 41 3 86 8 100
9 14 2 77 7 140 10 63 4 131 9 150 10 247 23 1135 23 1320 0 14 -2 75 -6 135
-10 61 -4 117 -9 126 -10 9 -2 52 -6 95 -10 43 -4 90 -8 104 -10 14 -3 48 -7
75 -10 109 -12 296 -39 430 -61 50 -8 104 -17 120 -20 17 -3 66 -11 110 -20
44 -8 96 -17 115 -20 19 -3 93 -19 164 -35 70 -16 138 -31 150 -33 122 -23
551 -136 766 -202 396 -122 856 -295 1170 -441 30 -14 71 -32 90 -41 70 -31
517 -253 600 -298 424 -231 712 -407 1060 -652 159 -112 496 -367 610 -461 74
-62 386 -331 431 -373 130 -119 296 -278 392 -376 220 -224 253 -259 331 -348
113 -128 199 -225 211 -238 6 -6 30 -36 55 -66 25 -30 47 -57 50 -60 3 -3 21
-25 40 -50 45 -58 49 -63 111 -138 46 -57 143 -186 327 -437 69 -94 372 -552
383 -580 2 -5 35 -62 73 -125 401 -668 764 -1483 999 -2240 73 -233 117 -390
151 -535 15 -60 33 -135 41 -165 8 -30 16 -66 19 -80 3 -14 14 -68 26 -120 24
-111 24 -111 44 -215 9 -44 18 -90 20 -101 2 -12 7 -37 10 -55 3 -19 8 -45 11
-59 7 -34 34 -204 40 -249 5 -37 14 -107 20 -151 2 -14 6 -45 10 -70 3 -25 8
-56 10 -70 7 -42 14 -102 20 -175 3 -38 7 -88 10 -110 4 -36 8 -78 20 -240 2
-27 7 -124 11 -215 3 -91 9 -167 12 -170 5 -5 -6 434 -13 505 -2 22 -6 86 -10
142 -3 57 -8 124 -10 150 -10 97 -16 159 -20 188 -2 17 -9 73 -15 125 -6 52
-13 111 -15 130 -15 120 -52 350 -90 560 -102 572 -301 1284 -502 1800 -69
177 -151 378 -200 490 -93 210 -102 228 -203 435 -87 178 -126 253 -250 480
-66 122 -155 274 -243 415 -137 220 -239 373 -432 648 -78 111 -361 473 -466
597 -188 221 -204 240 -259 300 -30 33 -82 89 -115 125 -92 101 -511 517 -599
595 -43 39 -84 75 -90 81 -137 129 -623 526 -792 647 -43 31 -115 83 -160 116
-127 92 -472 322 -553 367 -37 21 -45 26 -108 67 -24 15 -44 27 -47 27 -2 0
-34 18 -71 41 -232 141 -704 385 -1010 524 -71 32 -152 68 -180 81 -112 50
-431 176 -590 232 -192 69 -587 197 -632 205 -10 2 -25 7 -33 10 -25 10 -416
111 -469 122 -9 2 -43 10 -76 18 -55 15 -224 52 -285 63 -14 2 -56 11 -95 19
-87 18 -331 61 -405 71 -30 4 -57 8 -60 9 -14 3 -108 18 -130 20 -14 2 -45 6
-70 9 -73 10 -112 15 -170 21 -30 3 -71 8 -90 10 -19 3 -66 7 -105 10 -38 3
-86 7 -105 9 -19 3 -84 8 -145 11 -60 4 -126 9 -145 11 -43 6 -1056 14 -1061
9z"/>
<path d="M10868 20835 c-65 -36 -124 -168 -167 -375 -36 -166 -152 -477 -508
-1350 -246 -603 -464 -1250 -499 -1477 -3 -21 -10 -58 -15 -82 -5 -24 -12 -69
-15 -100 -3 -31 -8 -63 -11 -71 -10 -26 -11 -403 -2 -470 22 -161 22 -159 49
-257 99 -362 356 -692 656 -841 129 -64 232 -91 366 -95 47 -1 84 1 81 6 -2 4
-12 7 -22 7 -30 0 -133 36 -197 68 -324 163 -547 575 -538 991 1 69 5 137 8
151 3 14 9 45 12 70 3 25 8 48 10 51 2 4 6 24 10 45 3 22 11 48 17 59 6 11 10
22 9 25 -6 17 65 215 124 350 49 110 175 354 308 595 144 258 274 517 331 653
34 82 55 107 55 67 0 -8 11 -40 26 -72 14 -32 25 -58 24 -58 -15 0 213 -480
340 -715 37 -69 87 -161 110 -205 116 -215 263 -515 320 -650 34 -82 66 -159
71 -170 24 -55 98 -305 115 -390 34 -168 49 -423 32 -555 -41 -315 -184 -622
-386 -827 -149 -151 -340 -258 -514 -289 -46 -8 -50 -22 -5 -18 17 1 65 5 105
8 119 9 230 41 359 103 363 172 676 583 793 1037 15 61 31 134 35 161 3 28 8
59 10 70 14 63 21 385 11 470 -3 22 -8 67 -11 100 -3 33 -7 71 -9 85 -3 14 -9
57 -15 95 -12 78 -18 109 -25 133 -3 9 -8 31 -11 47 -35 205 -140 532 -322
1010 -63 165 -123 318 -133 340 -9 22 -25 60 -33 85 -8 25 -89 230 -180 455
-213 531 -270 686 -422 1137 -126 373 -192 533 -237 575 -32 30 -76 37 -110
18z"/>
<path d="M3995 17937 c-67 -57 -18 -223 130 -437 29 -42 85 -148 125 -240 40
-91 88 -199 107 -240 19 -41 71 -158 115 -260 44 -102 88 -203 98 -225 9 -22
34 -80 55 -130 20 -49 44 -106 52 -125 8 -19 19 -44 23 -55 4 -11 22 -51 39
-88 17 -37 31 -70 31 -73 0 -3 10 -26 21 -52 44 -95 68 -150 117 -259 105
-233 129 -284 227 -478 252 -502 496 -826 790 -1045 374 -280 842 -374 1230
-248 104 33 199 83 270 141 48 39 115 104 115 112 0 2 -25 -12 -56 -30 -306
-185 -742 -135 -1094 124 -247 181 -446 500 -598 956 -32 97 -84 264 -88 280
-4 20 -116 403 -151 515 -38 122 -138 398 -160 440 -7 13 -11 25 -10 27 2 1
52 -19 113 -46 198 -88 441 -174 849 -300 72 -22 220 -68 330 -101 751 -232
1167 -462 1455 -808 52 -62 151 -225 192 -317 87 -194 122 -354 123 -550 0
-168 -9 -231 -52 -355 -17 -50 -77 -172 -103 -210 -53 -78 0 -34 85 70 89 110
184 310 209 440 3 19 8 46 11 60 29 135 25 371 -10 565 -43 235 -166 509 -323
719 -99 131 -308 343 -442 446 -25 19 -47 37 -50 40 -10 12 -167 118 -265 180
-309 196 -640 352 -1756 830 -190 82 -376 162 -413 179 -36 17 -68 31 -70 31
-2 0 -46 20 -98 44 -51 24 -113 52 -138 64 -25 11 -208 101 -407 200 -468 232
-565 264 -628 209z"/>
<path d="M17725 17883 c-74 -17 -198 -79 -288 -144 -37 -27 -109 -67 -160 -88
-51 -21 -218 -94 -372 -160 -154 -67 -289 -126 -300 -130 -30 -13 -62 -26
-275 -113 -107 -43 -219 -90 -248 -104 -29 -13 -56 -24 -61 -24 -4 0 -21 -6
-37 -14 -46 -23 -234 -106 -238 -106 -3 0 -37 -15 -78 -34 -40 -18 -100 -46
-133 -61 -179 -81 -253 -116 -375 -179 -632 -323 -1000 -687 -1150 -1136 -63
-186 -87 -398 -66 -575 28 -232 141 -466 285 -590 l36 -30 -23 35 c-127 196
-163 428 -108 685 24 112 100 283 176 396 60 90 219 243 322 312 229 153 494
261 949 387 318 88 432 121 499 142 167 54 251 83 328 114 45 19 86 34 91 34
5 0 -8 -39 -28 -87 -106 -245 -167 -421 -307 -898 -200 -682 -301 -949 -467
-1236 -117 -201 -291 -397 -458 -515 -142 -100 -344 -189 -519 -228 -276 -62
-579 -20 -785 109 -92 58 -101 59 -45 4 107 -105 211 -172 346 -224 280 -109
558 -118 924 -30 47 11 225 79 286 108 272 134 524 353 749 652 235 313 412
650 704 1340 40 94 81 188 90 210 10 22 47 108 81 190 34 83 68 164 75 180 7
17 51 122 98 235 47 113 97 232 112 265 14 33 32 74 40 90 43 98 60 137 87
195 48 102 128 269 226 470 144 296 182 395 182 469 -1 76 -63 107 -165 84z"/>
<path d="M10758 14425 c-2 -1 -46 -5 -98 -9 -140 -9 -204 -16 -300 -31 -204
-33 -196 -31 -360 -72 -369 -91 -711 -239 -1005 -433 -41 -28 -83 -57 -93 -65
-9 -7 -53 -42 -97 -77 -129 -102 -341 -317 -473 -480 -341 -421 -609 -922
-791 -1478 -46 -141 -103 -350 -115 -424 -3 -16 -10 -52 -15 -80 -19 -91 -21
-110 -28 -199 -5 -76 -4 -87 9 -82 9 4 18 -1 21 -9 4 -9 11 -16 16 -16 23 0
91 118 249 430 166 329 209 410 251 480 11 19 30 53 42 75 12 22 62 105 112
185 318 514 716 954 1085 1200 191 128 449 245 687 314 125 36 334 81 420 91
28 3 59 8 70 10 11 2 57 7 102 10 45 4 94 8 110 11 39 5 412 5 443 0 14 -3 59
-7 100 -10 78 -5 298 -38 379 -57 25 -6 54 -12 63 -14 84 -18 278 -76 387
-117 307 -115 549 -250 791 -444 227 -182 353 -323 504 -564 199 -318 325
-672 370 -1045 18 -152 13 -473 -10 -605 -2 -14 -8 -52 -14 -85 -69 -417 -307
-954 -597 -1345 -71 -95 -272 -296 -383 -382 -331 -256 -744 -455 -1155 -557
-153 -38 -293 -64 -410 -76 -33 -4 -76 -8 -95 -11 -38 -4 -304 -4 -360 0 -133
11 -251 29 -394 61 -120 27 -247 75 -393 148 -273 138 -440 277 -661 552 -84
104 -242 388 -316 566 -138 334 -182 740 -120 1098 36 211 94 391 189 586 52
107 190 336 214 355 3 3 22 25 41 50 201 261 532 516 830 638 30 13 64 27 75
32 58 26 245 79 335 95 17 3 44 7 60 10 119 20 308 20 465 0 424 -56 849 -296
1110 -630 177 -226 290 -464 341 -719 22 -112 21 -336 -1 -469 -26 -149 -102
-351 -180 -481 -108 -177 -290 -361 -460 -462 -138 -82 -305 -152 -405 -168
-162 -27 -319 -26 -456 4 -58 13 -175 50 -189 60 -5 4 -30 15 -54 24 -129 50
-310 199 -414 340 -20 28 -40 56 -45 61 -60 82 -134 266 -152 381 -11 70 -14
218 -5 264 21 108 30 143 53 200 53 133 109 218 209 318 118 117 265 201 418
237 95 23 270 14 370 -19 213 -69 387 -236 465 -443 62 -167 44 -349 -52 -511
-36 -61 -137 -167 -169 -177 -10 -4 -19 -10 -19 -14 0 -11 -101 -55 -165 -73
-71 -21 -197 -15 -263 11 -91 36 -127 58 -183 113 -118 114 -168 261 -135 401
18 76 43 122 100 185 51 57 39 55 -20 -3 -132 -131 -148 -368 -35 -535 98
-146 244 -229 416 -236 105 -4 189 13 275 55 168 84 284 216 345 396 21 61 27
93 32 185 16 278 -163 571 -437 719 -118 63 -233 93 -375 96 -175 5 -278 -17
-435 -94 -105 -52 -149 -82 -239 -161 -152 -133 -274 -334 -327 -535 -24 -88
-27 -121 -28 -265 -1 -129 3 -182 18 -245 10 -44 23 -86 29 -92 5 -7 7 -13 4
-13 -3 0 6 -28 20 -62 141 -351 412 -624 753 -762 63 -26 213 -70 275 -81 229
-40 474 -20 694 57 418 147 759 448 955 843 131 263 179 465 180 750 1 196 -3
249 -29 370 -99 466 -387 913 -780 1212 -286 217 -592 351 -930 409 -16 2 -37
7 -45 9 -70 19 -419 27 -563 12 -188 -19 -484 -97 -657 -173 -95 -42 -292
-144 -311 -160 -8 -8 -19 -14 -22 -14 -11 0 -113 -68 -202 -134 -611 -454
-1004 -1141 -1083 -1891 -15 -143 -7 -538 13 -635 3 -14 10 -52 15 -85 27
-164 92 -388 156 -538 60 -138 65 -149 113 -247 148 -295 307 -517 525 -733
293 -290 698 -522 1096 -628 102 -27 235 -56 290 -63 25 -3 56 -8 69 -11 23
-4 65 -9 206 -21 174 -16 525 -5 690 21 17 2 48 7 70 11 22 3 85 14 140 25 55
11 111 22 125 25 14 2 32 7 40 10 8 3 26 8 40 10 86 17 348 102 506 164 574
228 1090 607 1411 1035 390 522 685 1237 739 1792 3 32 8 65 11 73 9 26 11
472 2 565 -9 94 -19 177 -24 204 -1 9 -10 57 -19 106 -75 404 -255 839 -500
1200 -33 50 -63 92 -66 95 -3 3 -24 30 -47 61 -23 31 -47 62 -55 70 -7 8 -26
30 -42 49 -241 296 -726 642 -1146 819 -30 12 -64 27 -75 32 -167 76 -528 178
-770 218 -139 23 -167 27 -355 47 -53 5 -487 13 -492 9z"/>
<path d="M5228 12455 c-2 -2 -35 -6 -74 -9 -357 -31 -722 -131 -1309 -357
-126 -49 -239 -93 -250 -99 -11 -5 -139 -57 -285 -115 -146 -58 -278 -112
-295 -120 -69 -31 -505 -208 -680 -275 -141 -54 -783 -283 -880 -314 -22 -7
-69 -27 -121 -53 -199 -97 -144 -222 136 -306 47 -14 103 -28 125 -32 22 -3
54 -8 70 -11 17 -2 73 -22 125 -44 52 -21 199 -79 325 -128 127 -49 367 -147
535 -217 417 -174 860 -348 1115 -438 427 -151 729 -214 1047 -221 280 -6 487
36 715 144 238 113 426 277 554 485 90 146 143 329 137 472 l-3 68 -13 -53
c-78 -334 -388 -605 -787 -687 -160 -33 -306 -31 -515 8 -29 6 -152 41 -220
63 -167 56 -409 174 -745 364 -110 62 -227 128 -260 147 -102 57 -411 210
-474 234 -34 13 -61 26 -61 29 0 3 17 12 38 19 168 59 625 278 837 401 31 18
85 47 210 115 39 21 75 41 80 45 16 12 413 212 480 242 468 209 856 279 1192
218 78 -14 221 -55 273 -77 327 -140 542 -331 670 -598 29 -59 55 -132 65
-180 9 -44 18 -82 21 -84 6 -7 -3 193 -11 234 -76 390 -359 737 -773 944 -259
131 -526 190 -849 189 -78 -1 -144 -2 -145 -3z"/>
<path d="M16835 12249 c-447 -55 -813 -276 -1032 -624 -76 -120 -129 -287
-133 -417 -4 -119 0 -128 20 -53 25 98 53 157 115 250 208 313 630 491 1038
438 230 -29 452 -104 742 -250 104 -52 111 -56 475 -260 262 -147 509 -273
633 -324 31 -12 54 -26 50 -29 -5 -3 -35 -16 -68 -29 -33 -12 -69 -27 -80 -31
-295 -129 -516 -240 -820 -411 -22 -12 -67 -36 -100 -54 -33 -18 -78 -43 -100
-55 -63 -36 -392 -202 -470 -237 -154 -71 -426 -167 -527 -187 -13 -3 -59 -12
-103 -21 -122 -24 -188 -30 -330 -29 -151 1 -196 6 -326 39 -381 96 -691 328
-842 630 -30 62 -45 103 -86 245 -17 59 -5 -165 13 -240 85 -355 335 -661 712
-870 306 -170 639 -235 1064 -207 104 7 119 9 235 27 33 5 78 12 100 16 204
31 813 223 1080 339 17 7 84 34 150 60 66 26 134 53 152 61 17 8 34 14 37 14
3 0 25 9 49 20 23 10 78 33 122 50 44 17 89 35 100 40 41 19 447 185 640 262
264 106 415 162 745 275 505 173 580 212 580 304 0 85 -189 181 -420 214 -25
3 -94 26 -155 50 -60 24 -153 60 -205 80 -193 74 -333 131 -680 275 -362 150
-475 196 -635 256 -49 19 -99 38 -110 44 -118 54 -575 208 -756 254 -167 43
-212 52 -409 81 -66 10 -395 13 -465 4z"/>
<path d="M21561 11204 c0 -11 3 -14 6 -6 3 7 2 16 -1 19 -3 4 -6 -2 -5 -13z"/>
<path d="M10670 11149 c0 -5 5 -7 10 -4 6 3 10 8 10 11 0 2 -4 4 -10 4 -5 0
-10 -5 -10 -11z"/>
<path d="M21566 11123 c-6 -14 -5 -15 5 -6 7 7 10 15 7 18 -3 3 -9 -2 -12 -12z"/>
<path d="M7119 8636 c-2 -2 -31 -7 -64 -10 -250 -28 -512 -125 -730 -271 -49
-33 -103 -72 -119 -85 -109 -93 -141 -122 -224 -208 -323 -336 -533 -700 -908
-1577 -52 -121 -99 -229 -104 -240 -5 -11 -83 -199 -174 -417 -198 -476 -283
-668 -411 -933 -257 -528 -273 -563 -295 -652 -14 -54 -8 -107 15 -138 11 -14
29 -20 67 -21 89 -4 221 51 367 154 35 24 118 68 185 97 66 29 144 63 171 75
70 31 90 40 266 115 164 71 235 101 479 200 202 82 360 149 438 186 35 16 65
29 67 29 2 0 71 30 152 66 81 37 168 75 193 86 590 264 1005 550 1235 854 25
32 48 64 53 69 88 115 210 399 228 532 3 26 8 51 10 55 5 7 18 173 18 228 1
285 -131 599 -309 730 -17 13 -17 12 3 -17 57 -81 113 -229 127 -338 7 -54 8
-197 1 -230 -2 -11 -7 -41 -10 -67 -4 -27 -20 -88 -36 -138 -62 -189 -163
-351 -303 -484 -72 -68 -216 -176 -235 -176 -6 0 -12 -4 -14 -9 -4 -11 -218
-119 -308 -156 -117 -48 -381 -132 -610 -195 -124 -34 -250 -69 -280 -78 -30
-9 -57 -16 -60 -17 -3 -1 -32 -9 -65 -20 -33 -10 -65 -19 -70 -20 -22 -5 -243
-84 -319 -114 -78 -31 -99 -34 -78 -9 19 24 138 331 197 508 31 96 61 186 66
200 4 14 53 178 108 365 55 187 123 408 151 490 228 668 514 1058 929 1265 94
47 293 115 361 124 25 4 71 10 104 15 60 8 252 6 296 -3 14 -3 50 -11 80 -17
111 -23 213 -68 350 -156 14 -8 -8 17 -48 56 -146 143 -353 245 -567 277 -16
3 -37 7 -45 10 -18 7 -325 16 -331 10z"/>
<path d="M13690 8147 c-48 -42 -128 -142 -170 -211 -40 -66 -106 -217 -115
-261 -2 -11 -4 -21 -6 -22 -2 -3 -2 -3 -14 -58 -13 -64 -14 -67 -21 -125 -12
-93 -10 -250 2 -355 77 -629 444 -1122 1164 -1562 255 -156 738 -384 1480
-700 58 -25 195 -83 305 -130 344 -146 638 -281 995 -459 419 -208 513 -247
592 -248 69 -1 97 20 102 78 8 83 -41 204 -152 369 -37 56 -92 160 -127 240
-35 78 -102 230 -150 337 -48 107 -93 209 -100 225 -7 17 -64 149 -125 295
-315 746 -522 1186 -691 1467 -338 565 -735 890 -1204 989 -129 27 -307 36
-440 22 -178 -19 -382 -106 -508 -218 -68 -62 -101 -109 -45 -67 53 41 163 87
256 107 367 80 818 -96 1078 -421 208 -261 330 -543 519 -1199 87 -303 186
-606 239 -730 20 -46 36 -85 36 -87 0 -1 -35 14 -77 34 -159 73 -473 188 -718
264 -55 17 -203 62 -330 100 -126 39 -297 93 -380 120 -763 256 -1192 561
-1409 1004 -51 104 -100 228 -110 278 -2 12 -10 45 -16 72 -6 28 -15 73 -18
100 -9 66 -8 278 1 335 21 131 81 286 150 388 20 28 35 52 34 52 -1 0 -13 -11
-27 -23z"/>
<path d="M10737 7064 c-1 -1 -27 -4 -57 -8 -45 -4 -116 -22 -205 -50 -65 -20
-177 -78 -266 -138 -350 -234 -633 -715 -684 -1163 -23 -199 -23 -491 -1 -610
2 -11 7 -47 10 -80 10 -88 68 -373 87 -425 4 -14 11 -36 13 -50 14 -72 173
-551 221 -665 7 -16 18 -46 25 -65 7 -19 16 -44 21 -55 5 -11 54 -137 109
-280 56 -143 105 -269 110 -280 29 -64 290 -724 358 -905 44 -118 126 -352
182 -520 179 -538 212 -609 293 -639 94 -36 209 170 242 431 5 42 26 102 141
395 13 34 24 64 24 68 0 7 192 491 300 755 39 96 121 306 181 465 60 160 118
313 129 340 65 169 187 569 205 674 3 19 7 37 9 40 2 3 7 22 10 41 3 19 7 44
10 55 29 145 44 318 40 485 -4 216 -17 309 -66 465 -18 55 -32 102 -33 105
-41 133 -191 365 -319 494 -147 148 -301 240 -472 286 -80 21 -254 36 -254 22
0 -4 26 -13 58 -21 83 -19 187 -71 271 -136 114 -88 193 -181 261 -307 40 -75
97 -205 105 -242 2 -12 9 -41 16 -66 88 -352 1 -752 -279 -1291 -39 -74 -122
-228 -186 -344 -132 -238 -301 -574 -344 -684 l-29 -75 -32 85 c-18 46 -38 98
-45 114 -8 17 -35 80 -62 140 -46 106 -218 451 -301 605 -23 41 -69 127 -103
190 -112 209 -277 553 -333 695 -87 221 -126 360 -173 615 -3 19 -7 114 -9
210 -2 152 0 190 21 290 89 433 318 766 644 934 79 41 187 79 254 90 16 3 30
7 32 9 4 3 -125 4 -129 1z"/>
</g>
</svg>
